<svg width="24" height="24" viewBox="0 0 24 24" fill="none" xmlns="http://www.w3.org/2000/svg">
<rect x="4" y="4" width="7" height="4" rx="2" stroke="#4481EB" stroke-width="1.5"/>
<rect x="4" y="11" width="7" height="10" rx="2.5" stroke="#4481EB" stroke-width="1.5"/>
<path d="M17.5 4.75C17.9142 4.75 18.25 4.41421 18.25 4C18.25 3.58579 17.9142 3.25 17.5 3.25V4.75ZM21.75 7C21.75 6.58579 21.4142 6.25 21 6.25C20.5858 6.25 20.25 6.58579 20.25 7H21.75ZM18.5 13.25H16.5V14.75H18.5V13.25ZM14.75 11.5V6.5H13.25V11.5H14.75ZM16.5 4.75H17.5V3.25H16.5V4.75ZM20.25 7C20.25 7.00241 20.25 7.00483 20.25 7.00725C20.25 7.00966 20.25 7.01208 20.25 7.0145C20.25 7.01692 20.25 7.01934 20.25 7.02177C20.25 7.02419 20.25 7.02662 20.25 7.02904C20.25 7.03147 20.25 7.0339 20.25 7.03633C20.25 7.03876 20.25 7.04119 20.25 7.04363C20.25 7.04606 20.25 7.0485 20.25 7.05094C20.25 7.05337 20.25 7.05581 20.25 7.05825C20.25 7.06069 20.25 7.06314 20.25 7.06558C20.25 7.06803 20.25 7.07047 20.25 7.07292C20.25 7.07537 20.25 7.07782 20.25 7.08027C20.25 7.08272 20.25 7.08517 20.25 7.08763C20.25 7.09008 20.25 7.09254 20.25 7.095C20.25 7.09745 20.25 7.09991 20.25 7.10238C20.25 7.10484 20.25 7.1073 20.25 7.10976C20.25 7.11223 20.25 7.1147 20.25 7.11716C20.25 7.11963 20.25 7.1221 20.25 7.12457C20.25 7.12704 20.25 7.12952 20.25 7.13199C20.25 7.13447 20.25 7.13694 20.25 7.13942C20.25 7.1419 20.25 7.14438 20.25 7.14686C20.25 7.14934 20.25 7.15183 20.25 7.15431C20.25 7.15679 20.25 7.15928 20.25 7.16177C20.25 7.16426 20.25 7.16675 20.25 7.16924C20.25 7.17173 20.25 7.17422 20.25 7.17672C20.25 7.17921 20.25 7.18171 20.25 7.18421C20.25 7.1867 20.25 7.1892 20.25 7.1917C20.25 7.19421 20.25 7.19671 20.25 7.19921C20.25 7.20172 20.25 7.20422 20.25 7.20673C20.25 7.20924 20.25 7.21175 20.25 7.21426C20.25 7.21677 20.25 7.21928 20.25 7.2218C20.25 7.22431 20.25 7.22683 20.25 7.22934C20.25 7.23186 20.25 7.23438 20.25 7.2369C20.25 7.23942 20.25 7.24194 20.25 7.24447C20.25 7.24699 20.25 7.24952 20.25 7.25204C20.25 7.25457 20.25 7.2571 20.25 7.25963C20.25 7.26216 20.25 7.26469 20.25 7.26723C20.25 7.26976 20.25 7.27229 20.25 7.27483C20.25 7.27737 20.25 7.27991 20.25 7.28244C20.25 7.28498 20.25 7.28753 20.25 7.29007C20.25 7.29261 20.25 7.29516 20.25 7.2977C20.25 7.30025 20.25 7.3028 20.25 7.30534C20.25 7.30789 20.25 7.31044 20.25 7.313C20.25 7.31555 20.25 7.3181 20.25 7.32066C20.25 7.32321 20.25 7.32577 20.25 7.32833C20.25 7.33089 20.25 7.33345 20.25 7.33601C20.25 7.33857 20.25 7.34113 20.25 7.3437C20.25 7.34626 20.25 7.34883 20.25 7.3514C20.25 7.35397 20.25 7.35654 20.25 7.35911C20.25 7.36168 20.25 7.36425 20.25 7.36682C20.25 7.3694 20.25 7.37197 20.25 7.37455C20.25 7.37713 20.25 7.37971 20.25 7.38229C20.25 7.38487 20.25 7.38745 20.25 7.39003C20.25 7.39261 20.25 7.3952 20.25 7.39779C20.25 7.40037 20.25 7.40296 20.25 7.40555C20.25 7.40814 20.25 7.41073 20.25 7.41332C20.25 7.41591 20.25 7.41851 20.25 7.4211C20.25 7.4237 20.25 7.42629 20.25 7.42889C20.25 7.43149 20.25 7.43409 20.25 7.43669C20.25 7.43929 20.25 7.4419 20.25 7.4445C20.25 7.4471 20.25 7.44971 20.25 7.45232C20.25 7.45492 20.25 7.45753 20.25 7.46014C20.25 7.46275 20.25 7.46536 20.25 7.46798C20.25 7.47059 20.25 7.47321 20.25 7.47582C20.25 7.47844 20.25 7.48106 20.25 7.48367C20.25 7.48629 20.25 7.48891 20.25 7.49154C20.25 7.49416 20.25 7.49678 20.25 7.49941C20.25 7.50203 20.25 7.50466 20.25 7.50728C20.25 7.50991 20.25 7.51254 20.25 7.51517C20.25 7.5178 20.25 7.52044 20.25 7.52307C20.25 7.5257 20.25 7.52834 20.25 7.53097C20.25 7.53361 20.25 7.53625 20.25 7.53889C20.25 7.54153 20.25 7.54417 20.25 7.54681C20.25 7.54945 20.25 7.5521 20.25 7.55474C20.25 7.55739 20.25 7.56003 20.25 7.56268C20.25 7.56533 20.25 7.56798 20.25 7.57063C20.25 7.57328 20.25 7.57593 20.25 7.57859C20.25 7.58124 20.25 7.58389 20.25 7.58655C20.25 7.58921 20.25 7.59187 20.25 7.59452C20.25 7.59718 20.25 7.59984 20.25 7.60251C20.25 7.60517 20.25 7.60783 20.25 7.6105C20.25 7.61316 20.25 7.61583 20.25 7.6185C20.25 7.62116 20.25 7.62383 20.25 7.6265C20.25 7.62917 20.25 7.63185 20.25 7.63452C20.25 7.63719 20.25 7.63987 20.25 7.64254C20.25 7.64522 20.25 7.6479 20.25 7.65058C20.25 7.65325 20.25 7.65593 20.25 7.65862C20.25 7.6613 20.25 7.66398 20.25 7.66666C20.25 7.66935 20.25 7.67203 20.25 7.67472C20.25 7.67741 20.25 7.6801 20.25 7.68279C20.25 7.68548 20.25 7.68817 20.25 7.69086C20.25 7.69355 20.25 7.69625 20.25 7.69894C20.25 7.70164 20.25 7.70433 20.25 7.70703C20.25 7.70973 20.25 7.71243 20.25 7.71513C20.25 7.71783 20.25 7.72053 20.25 7.72324C20.25 7.72594 20.25 7.72864 20.25 7.73135C20.25 7.73405 20.25 7.73676 20.25 7.73947C20.25 7.74218 20.25 7.74489 20.25 7.7476C20.25 7.75031 20.25 7.75302 20.25 7.75574C20.25 7.75845 20.25 7.76117 20.25 7.76388C20.25 7.7666 20.25 7.76932 20.25 7.77204C20.25 7.77476 20.25 7.77748 20.25 7.7802C20.25 7.78292 20.25 7.78564 20.25 7.78837C20.25 7.79109 20.25 7.79382 20.25 7.79655C20.25 7.79927 20.25 7.802 20.25 7.80473C20.25 7.80746 20.25 7.81019 20.25 7.81292C20.25 7.81566 20.25 7.81839 20.25 7.82112C20.25 7.82386 20.25 7.82659 20.25 7.82933C20.25 7.83207 20.25 7.83481 20.25 7.83755C20.25 7.84029 20.25 7.84303 20.25 7.84577C20.25 7.84851 20.25 7.85126 20.25 7.854C20.25 7.85675 20.25 7.85949 20.25 7.86224C20.25 7.86499 20.25 7.86774 20.25 7.87049C20.25 7.87324 20.25 7.87599 20.25 7.87874C20.25 7.88149 20.25 7.88425 20.25 7.887C20.25 7.88976 20.25 7.89251 20.25 7.89527C20.25 7.89803 20.25 7.90079 20.25 7.90355C20.25 7.90631 20.25 7.90907 20.25 7.91183C20.25 7.9146 20.25 7.91736 20.25 7.92012C20.25 7.92289 20.25 7.92566 20.25 7.92842C20.25 7.93119 20.25 7.93396 20.25 7.93673C20.25 7.9395 20.25 7.94227 20.25 7.94504C20.25 7.94782 20.25 7.95059 20.25 7.95336C20.25 7.95614 20.25 7.95892 20.25 7.96169C20.25 7.96447 20.25 7.96725 20.25 7.97003C20.25 7.97281 20.25 7.97559 20.25 7.97837C20.25 7.98115 20.25 7.98394 20.25 7.98672C20.25 7.98951 20.25 7.99229 20.25 7.99508C20.25 7.99787 20.25 8.00065 20.25 8.00344C20.25 8.00623 20.25 8.00902 20.25 8.01181C20.25 8.01461 20.25 8.0174 20.25 8.02019C20.25 8.02299 20.25 8.02578 20.25 8.02858C20.25 8.03138 20.25 8.03417 20.25 8.03697C20.25 8.03977 20.25 8.04257 20.25 8.04537C20.25 8.04817 20.25 8.05098 20.25 8.05378C20.25 8.05658 20.25 8.05939 20.25 8.06219C20.25 8.065 20.25 8.06781 20.25 8.07061C20.25 8.07342 20.25 8.07623 20.25 8.07904C20.25 8.08185 20.25 8.08466 20.25 8.08748C20.25 8.09029 20.25 8.0931 20.25 8.09592C20.25 8.09873 20.25 8.10155 20.25 8.10437C20.25 8.10718 20.25 8.11 20.25 8.11282C20.25 8.11564 20.25 8.11846 20.25 8.12128C20.25 8.12411 20.25 8.12693 20.25 8.12975C20.25 8.13258 20.25 8.1354 20.25 8.13823C20.25 8.14106 20.25 8.14388 20.25 8.14671C20.25 8.14954 20.25 8.15237 20.25 8.1552C20.25 8.15803 20.25 8.16086 20.25 8.1637C20.25 8.16653 20.25 8.16937 20.25 8.1722C20.25 8.17504 20.25 8.17787 20.25 8.18071C20.25 8.18355 20.25 8.18639 20.25 8.18923C20.25 8.19207 20.25 8.19491 20.25 8.19775C20.25 8.20059 20.25 8.20343 20.25 8.20628C20.25 8.20912 20.25 8.21197 20.25 8.21481C20.25 8.21766 20.25 8.22051 20.25 8.22336C20.25 8.2262 20.25 8.22905 20.25 8.2319C20.25 8.23475 20.25 8.23761 20.25 8.24046C20.25 8.24331 20.25 8.24617 20.25 8.24902C20.25 8.25188 20.25 8.25473 20.25 8.25759C20.25 8.26045 20.25 8.2633 20.25 8.26616C20.25 8.26902 20.25 8.27188 20.25 8.27474C20.25 8.2776 20.25 8.28047 20.25 8.28333C20.25 8.28619 20.25 8.28906 20.25 8.29192C20.25 8.29479 20.25 8.29766 20.25 8.30052C20.25 8.30339 20.25 8.30626 20.25 8.30913C20.25 8.312 20.25 8.31487 20.25 8.31774C20.25 8.32061 20.25 8.32348 20.25 8.32636C20.25 8.32923 20.25 8.33211 20.25 8.33498C20.25 8.33786 20.25 8.34074 20.25 8.34361C20.25 8.34649 20.25 8.34937 20.25 8.35225C20.25 8.35513 20.25 8.35801 20.25 8.36089C20.25 8.36378 20.25 8.36666 20.25 8.36954C20.25 8.37243 20.25 8.37531 20.25 8.3782C20.25 8.38108 20.25 8.38397 20.25 8.38686C20.25 8.38975 20.25 8.39263 20.25 8.39552C20.25 8.39841 20.25 8.40131 20.25 8.4042C20.25 8.40709 20.25 8.40998 20.25 8.41288C20.25 8.41577 20.25 8.41866 20.25 8.42156C20.25 8.42446 20.25 8.42735 20.25 8.43025C20.25 8.43315 20.25 8.43605 20.25 8.43895C20.25 8.44185 20.25 8.44475 20.25 8.44765C20.25 8.45055 20.25 8.45345 20.25 8.45636C20.25 8.45926 20.25 8.46217 20.25 8.46507C20.25 8.46798 20.25 8.47088 20.25 8.47379C20.25 8.4767 20.25 8.47961 20.25 8.48252C20.25 8.48543 20.25 8.48834 20.25 8.49125C20.25 8.49416 20.25 8.49707 20.25 8.49998C20.25 8.5029 20.25 8.50581 20.25 8.50873C20.25 8.51164 20.25 8.51456 20.25 8.51748C20.25 8.52039 20.25 8.52331 20.25 8.52623C20.25 8.52915 20.25 8.53207 20.25 8.53499C20.25 8.53791 20.25 8.54083 20.25 8.54375C20.25 8.54668 20.25 8.5496 20.25 8.55252C20.25 8.55545 20.25 8.55837 20.25 8.5613C20.25 8.56423 20.25 8.56715 20.25 8.57008C20.25 8.57301 20.25 8.57594 20.25 8.57887C20.25 8.5818 20.25 8.58473 20.25 8.58766C20.25 8.59059 20.25 8.59352 20.25 8.59646C20.25 8.59939 20.25 8.60232 20.25 8.60526C20.25 8.60819 20.25 8.61113 20.25 8.61407C20.25 8.617 20.25 8.61994 20.25 8.62288C20.25 8.62582 20.25 8.62876 20.25 8.6317C20.25 8.63464 20.25 8.63758 20.25 8.64052C20.25 8.64347 20.25 8.64641 20.25 8.64935C20.25 8.6523 20.25 8.65524 20.25 8.65819C20.25 8.66113 20.25 8.66408 20.25 8.66703C20.25 8.66998 20.25 8.67292 20.25 8.67587C20.25 8.67882 20.25 8.68177 20.25 8.68472C20.25 8.68767 20.25 8.69063 20.25 8.69358C20.25 8.69653 20.25 8.69948 20.25 8.70244C20.25 8.70539 20.25 8.70835 20.25 8.7113C20.25 8.71426 20.25 8.71722 20.25 8.72017C20.25 8.72313 20.25 8.72609 20.25 8.72905C20.25 8.73201 20.25 8.73497 20.25 8.73793C20.25 8.74089 20.25 8.74385 20.25 8.74682C20.25 8.74978 20.25 8.75274 20.25 8.75571C20.25 8.75867 20.25 8.76163 20.25 8.7646C20.25 8.76757 20.25 8.77053 20.25 8.7735C20.25 8.77647 20.25 8.77944 20.25 8.78241C20.25 8.78537 20.25 8.78834 20.25 8.79132C20.25 8.79429 20.25 8.79726 20.25 8.80023C20.25 8.8032 20.25 8.80618 20.25 8.80915C20.25 8.81212 20.25 8.8151 20.25 8.81807C20.25 8.82105 20.25 8.82402 20.25 8.827C20.25 8.82998 20.25 8.83296 20.25 8.83594C20.25 8.83891 20.25 8.84189 20.25 8.84487C20.25 8.84785 20.25 8.85083 20.25 8.85382C20.25 8.8568 20.25 8.85978 20.25 8.86276C20.25 8.86575 20.25 8.86873 20.25 8.87172C20.25 8.8747 20.25 8.87769 20.25 8.88067C20.25 8.88366 20.25 8.88665 20.25 8.88963C20.25 8.89262 20.25 8.89561 20.25 8.8986C20.25 8.90159 20.25 8.90458 20.25 8.90757C20.25 8.91056 20.25 8.91355 20.25 8.91654C20.25 8.91954 20.25 8.92253 20.25 8.92552C20.25 8.92852 20.25 8.93151 20.25 8.93451C20.25 8.9375 20.25 8.9405 20.25 8.94349C20.25 8.94649 20.25 8.94949 20.25 8.95249C20.25 8.95548 20.25 8.95848 20.25 8.96148C20.25 8.96448 20.25 8.96748 20.25 8.97048C20.25 8.97348 20.25 8.97649 20.25 8.97949C20.25 8.98249 20.25 8.98549 20.25 8.9885C20.25 8.9915 20.25 8.99451 20.25 8.99751C20.25 9.00052 20.25 9.00352 20.25 9.00653C20.25 9.00954 20.25 9.01254 20.25 9.01555C20.25 9.01856 20.25 9.02157 20.25 9.02458C20.25 9.02759 20.25 9.0306 20.25 9.03361C20.25 9.03662 20.25 9.03963 20.25 9.04264C20.25 9.04565 20.25 9.04867 20.25 9.05168C20.25 9.05469 20.25 9.05771 20.25 9.06072C20.25 9.06374 20.25 9.06675 20.25 9.06977C20.25 9.07279 20.25 9.0758 20.25 9.07882C20.25 9.08184 20.25 9.08486 20.25 9.08787C20.25 9.09089 20.25 9.09391 20.25 9.09693C20.25 9.09995 20.25 9.10297 20.25 9.106C20.25 9.10902 20.25 9.11204 20.25 9.11506C20.25 9.11808 20.25 9.12111 20.25 9.12413C20.25 9.12716 20.25 9.13018 20.25 9.13321C20.25 9.13623 20.25 9.13926 20.25 9.14228C20.25 9.14531 20.25 9.14834 20.25 9.15136C20.25 9.15439 20.25 9.15742 20.25 9.16045C20.25 9.16348 20.25 9.16651 20.25 9.16954C20.25 9.17257 20.25 9.1756 20.25 9.17863C20.25 9.18166 20.25 9.1847 20.25 9.18773C20.25 9.19076 20.25 9.19379 20.25 9.19683C20.25 9.19986 20.25 9.2029 20.25 9.20593C20.25 9.20897 20.25 9.212 20.25 9.21504C20.25 9.21808 20.25 9.22111 20.25 9.22415C20.25 9.22719 20.25 9.23023 20.25 9.23327C20.25 9.2363 20.25 9.23934 20.25 9.24238C20.25 9.24542 20.25 9.24846 20.25 9.2515C20.25 9.25455 20.25 9.25759 20.25 9.26063C20.25 9.26367 20.25 9.26672 20.25 9.26976C20.25 9.2728 20.25 9.27585 20.25 9.27889C20.25 9.28193 20.25 9.28498 20.25 9.28803C20.25 9.29107 20.25 9.29412 20.25 9.29716C20.25 9.30021 20.25 9.30326 20.25 9.30631C20.25 9.30935 20.25 9.3124 20.25 9.31545C20.25 9.3185 20.25 9.32155 20.25 9.3246C20.25 9.32765 20.25 9.3307 20.25 9.33375C20.25 9.3368 20.25 9.33986 20.25 9.34291C20.25 9.34596 20.25 9.34901 20.25 9.35207C20.25 9.35512 20.25 9.35817 20.25 9.36123C20.25 9.36428 20.25 9.36734 20.25 9.37039C20.25 9.37345 20.25 9.3765 20.25 9.37956C20.25 9.38262 20.25 9.38567 20.25 9.38873C20.25 9.39179 20.25 9.39485 20.25 9.39791C20.25 9.40096 20.25 9.40402 20.25 9.40708C20.25 9.41014 20.25 9.4132 20.25 9.41626C20.25 9.41932 20.25 9.42239 20.25 9.42545C20.25 9.42851 20.25 9.43157 20.25 9.43463C20.25 9.4377 20.25 9.44076 20.25 9.44382C20.25 9.44689 20.25 9.44995 20.25 9.45301C20.25 9.45608 20.25 9.45914 20.25 9.46221C20.25 9.46528 20.25 9.46834 20.25 9.47141C20.25 9.47447 20.25 9.47754 20.25 9.48061C20.25 9.48368 20.25 9.48674 20.25 9.48981C20.25 9.49288 20.25 9.49595 20.25 9.49902C20.25 9.50209 20.25 9.50516 20.25 9.50823C20.25 9.5113 20.25 9.51437 20.25 9.51744C20.25 9.52051 20.25 9.52358 20.25 9.52665C20.25 9.52973 20.25 9.5328 20.25 9.53587C20.25 9.53895 20.25 9.54202 20.25 9.54509C20.25 9.54817 20.25 9.55124 20.25 9.55432C20.25 9.55739 20.25 9.56047 20.25 9.56354C20.25 9.56662 20.25 9.56969 20.25 9.57277C20.25 9.57585 20.25 9.57892 20.25 9.582C20.25 9.58508 20.25 9.58815 20.25 9.59123C20.25 9.59431 20.25 9.59739 20.25 9.60047C20.25 9.60355 20.25 9.60663 20.25 9.60971C20.25 9.61279 20.25 9.61587 20.25 9.61895C20.25 9.62203 20.25 9.62511 20.25 9.62819C20.25 9.63127 20.25 9.63435 20.25 9.63744C20.25 9.64052 20.25 9.6436 20.25 9.64668C20.25 9.64977 20.25 9.65285 20.25 9.65593C20.25 9.65902 20.25 9.6621 20.25 9.66519C20.25 9.66827 20.25 9.67136 20.25 9.67444C20.25 9.67753 20.25 9.68061 20.25 9.6837C20.25 9.68678 20.25 9.68987 20.25 9.69296C20.25 9.69604 20.25 9.69913 20.25 9.70222C20.25 9.70531 20.25 9.7084 20.25 9.71148C20.25 9.71457 20.25 9.71766 20.25 9.72075C20.25 9.72384 20.25 9.72693 20.25 9.73002C20.25 9.73311 20.25 9.7362 20.25 9.73929C20.25 9.74238 20.25 9.74547 20.25 9.74856C20.25 9.75165 20.25 9.75474 20.25 9.75784C20.25 9.76093 20.25 9.76402 20.25 9.76711C20.25 9.77021 20.25 9.7733 20.25 9.77639C20.25 9.77948 20.25 9.78258 20.25 9.78567C20.25 9.78877 20.25 9.79186 20.25 9.79495C20.25 9.79805 20.25 9.80114 20.25 9.80424C20.25 9.80733 20.25 9.81043 20.25 9.81353C20.25 9.81662 20.25 9.81972 20.25 9.82281C20.25 9.82591 20.25 9.82901 20.25 9.83211C20.25 9.8352 20.25 9.8383 20.25 9.8414C20.25 9.84449 20.25 9.84759 20.25 9.85069C20.25 9.85379 20.25 9.85689 20.25 9.85999C20.25 9.86309 20.25 9.86619 20.25 9.86928C20.25 9.87238 20.25 9.87548 20.25 9.87858C20.25 9.88168 20.25 9.88478 20.25 9.88789C20.25 9.89099 20.25 9.89409 20.25 9.89719C20.25 9.90029 20.25 9.90339 20.25 9.90649C20.25 9.90959 20.25 9.9127 20.25 9.9158C20.25 9.9189 20.25 9.922 20.25 9.92511C20.25 9.92821 20.25 9.93131 20.25 9.93442C20.25 9.93752 20.25 9.94062 20.25 9.94373C20.25 9.94683 20.25 9.94993 20.25 9.95304C20.25 9.95614 20.25 9.95925 20.25 9.96235C20.25 9.96546 20.25 9.96856 20.25 9.97167C20.25 9.97477 20.25 9.97788 20.25 9.98099C20.25 9.98409 20.25 9.9872 20.25 9.9903C20.25 9.99341 20.25 9.99652 20.25 9.99962C20.25 10.0027 20.25 10.0058 20.25 10.0089C20.25 10.0121 20.25 10.0152 20.25 10.0183C20.25 10.0214 20.25 10.0245 20.25 10.0276C20.25 10.0307 20.25 10.0338 20.25 10.0369C20.25 10.04 20.25 10.0431 20.25 10.0462C20.25 10.0494 20.25 10.0525 20.25 10.0556C20.25 10.0587 20.25 10.0618 20.25 10.0649C20.25 10.068 20.25 10.0711 20.25 10.0742C20.25 10.0773 20.25 10.0804 20.25 10.0836C20.25 10.0867 20.25 10.0898 20.25 10.0929C20.25 10.096 20.25 10.0991 20.25 10.1022C20.25 10.1053 20.25 10.1084 20.25 10.1116C20.25 10.1147 20.25 10.1178 20.25 10.1209C20.25 10.124 20.25 10.1271 20.25 10.1302C20.25 10.1333 20.25 10.1365 20.25 10.1396C20.25 10.1427 20.25 10.1458 20.25 10.1489C20.25 10.152 20.25 10.1551 20.25 10.1582C20.25 10.1614 20.25 10.1645 20.25 10.1676C20.25 10.1707 20.25 10.1738 20.25 10.1769C20.25 10.18 20.25 10.1832 20.25 10.1863C20.25 10.1894 20.25 10.1925 20.25 10.1956C20.25 10.1987 20.25 10.2018 20.25 10.205C20.25 10.2081 20.25 10.2112 20.25 10.2143C20.25 10.2174 20.25 10.2205 20.25 10.2237C20.25 10.2268 20.25 10.2299 20.25 10.233C20.25 10.2361 20.25 10.2392 20.25 10.2423C20.25 10.2455 20.25 10.2486 20.25 10.2517C20.25 10.2548 20.25 10.2579 20.25 10.261C20.25 10.2642 20.25 10.2673 20.25 10.2704C20.25 10.2735 20.25 10.2766 20.25 10.2797C20.25 10.2829 20.25 10.286 20.25 10.2891C20.25 10.2922 20.25 10.2953 20.25 10.2984C20.25 10.3016 20.25 10.3047 20.25 10.3078C20.25 10.3109 20.25 10.314 20.25 10.3171C20.25 10.3203 20.25 10.3234 20.25 10.3265C20.25 10.3296 20.25 10.3327 20.25 10.3359C20.25 10.339 20.25 10.3421 20.25 10.3452C20.25 10.3483 20.25 10.3514 20.25 10.3546C20.25 10.3577 20.25 10.3608 20.25 10.3639C20.25 10.367 20.25 10.3702 20.25 10.3733C20.25 10.3764 20.25 10.3795 20.25 10.3826C20.25 10.3857 20.25 10.3889 20.25 10.392C20.25 10.3951 20.25 10.3982 20.25 10.4013C20.25 10.4045 20.25 10.4076 20.25 10.4107C20.25 10.4138 20.25 10.4169 20.25 10.4201C20.25 10.4232 20.25 10.4263 20.25 10.4294C20.25 10.4325 20.25 10.4356 20.25 10.4388C20.25 10.4419 20.25 10.445 20.25 10.4481C20.25 10.4512 20.25 10.4544 20.25 10.4575C20.25 10.4606 20.25 10.4637 20.25 10.4668C20.25 10.47 20.25 10.4731 20.25 10.4762C20.25 10.4793 20.25 10.4824 20.25 10.4856C20.25 10.4887 20.25 10.4918 20.25 10.4949C20.25 10.498 20.25 10.5011 20.25 10.5043C20.25 10.5074 20.25 10.5105 20.25 10.5136C20.25 10.5167 20.25 10.5199 20.25 10.523C20.25 10.5261 20.25 10.5292 20.25 10.5323C20.25 10.5355 20.25 10.5386 20.25 10.5417C20.25 10.5448 20.25 10.5479 20.25 10.5511C20.25 10.5542 20.25 10.5573 20.25 10.5604C20.25 10.5635 20.25 10.5667 20.25 10.5698C20.25 10.5729 20.25 10.576 20.25 10.5791C20.25 10.5822 20.25 10.5854 20.25 10.5885C20.25 10.5916 20.25 10.5947 20.25 10.5978C20.25 10.601 20.25 10.6041 20.25 10.6072C20.25 10.6103 20.25 10.6134 20.25 10.6166C20.25 10.6197 20.25 10.6228 20.25 10.6259C20.25 10.629 20.25 10.6321 20.25 10.6353C20.25 10.6384 20.25 10.6415 20.25 10.6446C20.25 10.6477 20.25 10.6509 20.25 10.654C20.25 10.6571 20.25 10.6602 20.25 10.6633C20.25 10.6664 20.25 10.6696 20.25 10.6727C20.25 10.6758 20.25 10.6789 20.25 10.682C20.25 10.6851 20.25 10.6883 20.25 10.6914C20.25 10.6945 20.25 10.6976 20.25 10.7007C20.25 10.7039 20.25 10.707 20.25 10.7101C20.25 10.7132 20.25 10.7163 20.25 10.7194C20.25 10.7226 20.25 10.7257 20.25 10.7288C20.25 10.7319 20.25 10.735 20.25 10.7381C20.25 10.7413 20.25 10.7444 20.25 10.7475C20.25 10.7506 20.25 10.7537 20.25 10.7568C20.25 10.7599 20.25 10.7631 20.25 10.7662C20.25 10.7693 20.25 10.7724 20.25 10.7755C20.25 10.7786 20.25 10.7818 20.25 10.7849C20.25 10.788 20.25 10.7911 20.25 10.7942C20.25 10.7973 20.25 10.8004 20.25 10.8036C20.25 10.8067 20.25 10.8098 20.25 10.8129C20.25 10.816 20.25 10.8191 20.25 10.8222C20.25 10.8254 20.25 10.8285 20.25 10.8316C20.25 10.8347 20.25 10.8378 20.25 10.8409C20.25 10.844 20.25 10.8472 20.25 10.8503C20.25 10.8534 20.25 10.8565 20.25 10.8596C20.25 10.8627 20.25 10.8658 20.25 10.8689C20.25 10.8721 20.25 10.8752 20.25 10.8783C20.25 10.8814 20.25 10.8845 20.25 10.8876C20.25 10.8907 20.25 10.8938 20.25 10.897C20.25 10.9001 20.25 10.9032 20.25 10.9063C20.25 10.9094 20.25 10.9125 20.25 10.9156C20.25 10.9187 20.25 10.9218 20.25 10.925C20.25 10.9281 20.25 10.9312 20.25 10.9343C20.25 10.9374 20.25 10.9405 20.25 10.9436C20.25 10.9467 20.25 10.9498 20.25 10.9529C20.25 10.956 20.25 10.9592 20.25 10.9623C20.25 10.9654 20.25 10.9685 20.25 10.9716C20.25 10.9747 20.25 10.9778 20.25 10.9809C20.25 10.984 20.25 10.9871 20.25 10.9902C20.25 10.9933 20.25 10.9965 20.25 10.9996C20.25 11.0027 20.25 11.0058 20.25 11.0089C20.25 11.012 20.25 11.0151 20.25 11.0182C20.25 11.0213 20.25 11.0244 20.25 11.0275C20.25 11.0306 20.25 11.0337 20.25 11.0368C20.25 11.0399 20.25 11.043 20.25 11.0461C20.25 11.0492 20.25 11.0524 20.25 11.0555C20.25 11.0586 20.25 11.0617 20.25 11.0648C20.25 11.0679 20.25 11.071 20.25 11.0741C20.25 11.0772 20.25 11.0803 20.25 11.0834C20.25 11.0865 20.25 11.0896 20.25 11.0927C20.25 11.0958 20.25 11.0989 20.25 11.102C20.25 11.1051 20.25 11.1082 20.25 11.1113C20.25 11.1144 20.25 11.1175 20.25 11.1206C20.25 11.1237 20.25 11.1268 20.25 11.1299C20.25 11.133 20.25 11.1361 20.25 11.1392C20.25 11.1423 20.25 11.1454 20.25 11.1485C20.25 11.1516 20.25 11.1547 20.25 11.1578C20.25 11.1609 20.25 11.164 20.25 11.1671C20.25 11.1702 20.25 11.1733 20.25 11.1764C20.25 11.1795 20.25 11.1826 20.25 11.1857C20.25 11.1888 20.25 11.1919 20.25 11.1949C20.25 11.198 20.25 11.2011 20.25 11.2042C20.25 11.2073 20.25 11.2104 20.25 11.2135C20.25 11.2166 20.25 11.2197 20.25 11.2228C20.25 11.2259 20.25 11.229 20.25 11.2321C20.25 11.2352 20.25 11.2383 20.25 11.2414C20.25 11.2444 20.25 11.2475 20.25 11.2506C20.25 11.2537 20.25 11.2568 20.25 11.2599C20.25 11.263 20.25 11.2661 20.25 11.2692C20.25 11.2723 20.25 11.2753 20.25 11.2784C20.25 11.2815 20.25 11.2846 20.25 11.2877C20.25 11.2908 20.25 11.2939 20.25 11.297C20.25 11.3001 20.25 11.3031 20.25 11.3062C20.25 11.3093 20.25 11.3124 20.25 11.3155C20.25 11.3186 20.25 11.3217 20.25 11.3247C20.25 11.3278 20.25 11.3309 20.25 11.334C20.25 11.3371 20.25 11.3402 20.25 11.3433C20.25 11.3463 20.25 11.3494 20.25 11.3525C20.25 11.3556 20.25 11.3587 20.25 11.3618C20.25 11.3648 20.25 11.3679 20.25 11.371C20.25 11.3741 20.25 11.3772 20.25 11.3802C20.25 11.3833 20.25 11.3864 20.25 11.3895C20.25 11.3926 20.25 11.3956 20.25 11.3987C20.25 11.4018 20.25 11.4049 20.25 11.408C20.25 11.411 20.25 11.4141 20.25 11.4172C20.25 11.4203 20.25 11.4233 20.25 11.4264C20.25 11.4295 20.25 11.4326 20.25 11.4356C20.25 11.4387 20.25 11.4418 20.25 11.4449C20.25 11.448 20.25 11.451 20.25 11.4541C20.25 11.4572 20.25 11.4602 20.25 11.4633C20.25 11.4664 20.25 11.4695 20.25 11.4725C20.25 11.4756 20.25 11.4787 20.25 11.4818C20.25 11.4848 20.25 11.4879 20.25 11.491C20.25 11.494 20.25 11.4971 20.25 11.5002H21.75C21.75 11.4971 21.75 11.494 21.75 11.491C21.75 11.4879 21.75 11.4848 21.75 11.4818C21.75 11.4787 21.75 11.4756 21.75 11.4725C21.75 11.4695 21.75 11.4664 21.75 11.4633C21.75 11.4602 21.75 11.4572 21.75 11.4541C21.75 11.451 21.75 11.448 21.75 11.4449C21.75 11.4418 21.75 11.4387 21.75 11.4356C21.75 11.4326 21.75 11.4295 21.75 11.4264C21.75 11.4233 21.75 11.4203 21.75 11.4172C21.75 11.4141 21.75 11.411 21.75 11.408C21.75 11.4049 21.75 11.4018 21.75 11.3987C21.75 11.3956 21.75 11.3926 21.75 11.3895C21.75 11.3864 21.75 11.3833 21.75 11.3802C21.75 11.3772 21.75 11.3741 21.75 11.371C21.75 11.3679 21.75 11.3648 21.75 11.3618C21.75 11.3587 21.75 11.3556 21.75 11.3525C21.75 11.3494 21.75 11.3463 21.75 11.3433C21.75 11.3402 21.75 11.3371 21.75 11.334C21.75 11.3309 21.75 11.3278 21.75 11.3247C21.75 11.3217 21.75 11.3186 21.75 11.3155C21.75 11.3124 21.75 11.3093 21.75 11.3062C21.75 11.3031 21.75 11.3001 21.75 11.297C21.75 11.2939 21.75 11.2908 21.75 11.2877C21.75 11.2846 21.75 11.2815 21.75 11.2784C21.75 11.2753 21.75 11.2723 21.75 11.2692C21.75 11.2661 21.75 11.263 21.75 11.2599C21.75 11.2568 21.75 11.2537 21.75 11.2506C21.75 11.2475 21.75 11.2444 21.75 11.2414C21.75 11.2383 21.75 11.2352 21.75 11.2321C21.75 11.229 21.75 11.2259 21.75 11.2228C21.75 11.2197 21.75 11.2166 21.75 11.2135C21.75 11.2104 21.75 11.2073 21.75 11.2042C21.75 11.2011 21.75 11.198 21.75 11.1949C21.75 11.1919 21.75 11.1888 21.75 11.1857C21.75 11.1826 21.75 11.1795 21.75 11.1764C21.75 11.1733 21.75 11.1702 21.75 11.1671C21.75 11.164 21.75 11.1609 21.75 11.1578C21.75 11.1547 21.75 11.1516 21.75 11.1485C21.75 11.1454 21.75 11.1423 21.75 11.1392C21.75 11.1361 21.75 11.133 21.75 11.1299C21.75 11.1268 21.75 11.1237 21.75 11.1206C21.75 11.1175 21.75 11.1144 21.75 11.1113C21.75 11.1082 21.75 11.1051 21.75 11.102C21.75 11.0989 21.75 11.0958 21.75 11.0927C21.75 11.0896 21.75 11.0865 21.75 11.0834C21.75 11.0803 21.75 11.0772 21.75 11.0741C21.75 11.071 21.75 11.0679 21.75 11.0648C21.75 11.0617 21.75 11.0586 21.75 11.0555C21.75 11.0524 21.75 11.0492 21.75 11.0461C21.75 11.043 21.75 11.0399 21.75 11.0368C21.75 11.0337 21.75 11.0306 21.75 11.0275C21.75 11.0244 21.75 11.0213 21.75 11.0182C21.75 11.0151 21.75 11.012 21.75 11.0089C21.75 11.0058 21.75 11.0027 21.75 10.9996C21.75 10.9965 21.75 10.9933 21.75 10.9902C21.75 10.9871 21.75 10.984 21.75 10.9809C21.75 10.9778 21.75 10.9747 21.75 10.9716C21.75 10.9685 21.75 10.9654 21.75 10.9623C21.75 10.9592 21.75 10.956 21.75 10.9529C21.75 10.9498 21.75 10.9467 21.75 10.9436C21.75 10.9405 21.75 10.9374 21.75 10.9343C21.75 10.9312 21.75 10.9281 21.75 10.925C21.75 10.9218 21.75 10.9187 21.75 10.9156C21.75 10.9125 21.75 10.9094 21.75 10.9063C21.75 10.9032 21.75 10.9001 21.75 10.897C21.75 10.8938 21.75 10.8907 21.75 10.8876C21.75 10.8845 21.75 10.8814 21.75 10.8783C21.75 10.8752 21.75 10.8721 21.75 10.8689C21.75 10.8658 21.75 10.8627 21.75 10.8596C21.75 10.8565 21.75 10.8534 21.75 10.8503C21.75 10.8472 21.75 10.844 21.75 10.8409C21.75 10.8378 21.75 10.8347 21.75 10.8316C21.75 10.8285 21.75 10.8254 21.75 10.8222C21.75 10.8191 21.75 10.816 21.75 10.8129C21.75 10.8098 21.75 10.8067 21.75 10.8036C21.75 10.8004 21.75 10.7973 21.75 10.7942C21.75 10.7911 21.75 10.788 21.75 10.7849C21.75 10.7818 21.75 10.7786 21.75 10.7755C21.75 10.7724 21.75 10.7693 21.75 10.7662C21.75 10.7631 21.75 10.7599 21.75 10.7568C21.75 10.7537 21.75 10.7506 21.75 10.7475C21.75 10.7444 21.75 10.7413 21.75 10.7381C21.75 10.735 21.75 10.7319 21.75 10.7288C21.75 10.7257 21.75 10.7226 21.75 10.7194C21.75 10.7163 21.75 10.7132 21.75 10.7101C21.75 10.707 21.75 10.7039 21.75 10.7007C21.75 10.6976 21.75 10.6945 21.75 10.6914C21.75 10.6883 21.75 10.6851 21.75 10.682C21.75 10.6789 21.75 10.6758 21.75 10.6727C21.75 10.6696 21.75 10.6664 21.75 10.6633C21.75 10.6602 21.75 10.6571 21.75 10.654C21.75 10.6509 21.75 10.6477 21.75 10.6446C21.75 10.6415 21.75 10.6384 21.75 10.6353C21.75 10.6321 21.75 10.629 21.75 10.6259C21.75 10.6228 21.75 10.6197 21.75 10.6166C21.75 10.6134 21.75 10.6103 21.75 10.6072C21.75 10.6041 21.75 10.601 21.75 10.5978C21.75 10.5947 21.75 10.5916 21.75 10.5885C21.75 10.5854 21.75 10.5822 21.75 10.5791C21.75 10.576 21.75 10.5729 21.75 10.5698C21.75 10.5667 21.75 10.5635 21.75 10.5604C21.75 10.5573 21.75 10.5542 21.75 10.5511C21.75 10.5479 21.75 10.5448 21.75 10.5417C21.75 10.5386 21.75 10.5355 21.75 10.5323C21.75 10.5292 21.75 10.5261 21.75 10.523C21.75 10.5199 21.75 10.5167 21.75 10.5136C21.75 10.5105 21.75 10.5074 21.75 10.5043C21.75 10.5011 21.75 10.498 21.75 10.4949C21.75 10.4918 21.75 10.4887 21.75 10.4856C21.75 10.4824 21.75 10.4793 21.75 10.4762C21.75 10.4731 21.75 10.47 21.75 10.4668C21.75 10.4637 21.75 10.4606 21.75 10.4575C21.75 10.4544 21.75 10.4512 21.75 10.4481C21.75 10.445 21.75 10.4419 21.75 10.4388C21.75 10.4356 21.75 10.4325 21.75 10.4294C21.75 10.4263 21.75 10.4232 21.75 10.4201C21.75 10.4169 21.75 10.4138 21.75 10.4107C21.75 10.4076 21.75 10.4045 21.75 10.4013C21.75 10.3982 21.75 10.3951 21.75 10.392C21.75 10.3889 21.75 10.3857 21.75 10.3826C21.75 10.3795 21.75 10.3764 21.75 10.3733C21.75 10.3702 21.75 10.367 21.75 10.3639C21.75 10.3608 21.75 10.3577 21.75 10.3546C21.75 10.3514 21.75 10.3483 21.75 10.3452C21.75 10.3421 21.75 10.339 21.75 10.3359C21.75 10.3327 21.75 10.3296 21.75 10.3265C21.75 10.3234 21.75 10.3203 21.75 10.3171C21.75 10.314 21.75 10.3109 21.75 10.3078C21.75 10.3047 21.75 10.3016 21.75 10.2984C21.75 10.2953 21.75 10.2922 21.75 10.2891C21.75 10.286 21.75 10.2829 21.75 10.2797C21.75 10.2766 21.75 10.2735 21.75 10.2704C21.75 10.2673 21.75 10.2642 21.75 10.261C21.75 10.2579 21.75 10.2548 21.75 10.2517C21.75 10.2486 21.75 10.2455 21.75 10.2423C21.75 10.2392 21.75 10.2361 21.75 10.233C21.75 10.2299 21.75 10.2268 21.75 10.2237C21.75 10.2205 21.75 10.2174 21.75 10.2143C21.75 10.2112 21.75 10.2081 21.75 10.205C21.75 10.2018 21.75 10.1987 21.75 10.1956C21.75 10.1925 21.75 10.1894 21.75 10.1863C21.75 10.1832 21.75 10.18 21.75 10.1769C21.75 10.1738 21.75 10.1707 21.75 10.1676C21.75 10.1645 21.75 10.1614 21.75 10.1582C21.75 10.1551 21.75 10.152 21.75 10.1489C21.75 10.1458 21.75 10.1427 21.75 10.1396C21.75 10.1365 21.75 10.1333 21.75 10.1302C21.75 10.1271 21.75 10.124 21.75 10.1209C21.75 10.1178 21.75 10.1147 21.75 10.1116C21.75 10.1084 21.75 10.1053 21.75 10.1022C21.75 10.0991 21.75 10.096 21.75 10.0929C21.75 10.0898 21.75 10.0867 21.75 10.0836C21.75 10.0804 21.75 10.0773 21.75 10.0742C21.75 10.0711 21.75 10.068 21.75 10.0649C21.75 10.0618 21.75 10.0587 21.75 10.0556C21.75 10.0525 21.75 10.0494 21.75 10.0462C21.75 10.0431 21.75 10.04 21.75 10.0369C21.75 10.0338 21.75 10.0307 21.75 10.0276C21.75 10.0245 21.75 10.0214 21.75 10.0183C21.75 10.0152 21.75 10.0121 21.75 10.0089C21.75 10.0058 21.75 10.0027 21.75 9.99962C21.75 9.99652 21.75 9.99341 21.75 9.9903C21.75 9.9872 21.75 9.98409 21.75 9.98099C21.75 9.97788 21.75 9.97477 21.75 9.97167C21.75 9.96856 21.75 9.96546 21.75 9.96235C21.75 9.95925 21.75 9.95614 21.75 9.95304C21.75 9.94993 21.75 9.94683 21.75 9.94373C21.75 9.94062 21.75 9.93752 21.75 9.93442C21.75 9.93131 21.75 9.92821 21.75 9.92511C21.75 9.922 21.75 9.9189 21.75 9.9158C21.75 9.9127 21.75 9.90959 21.75 9.90649C21.75 9.90339 21.75 9.90029 21.75 9.89719C21.75 9.89409 21.75 9.89099 21.75 9.88789C21.75 9.88478 21.75 9.88168 21.75 9.87858C21.75 9.87548 21.75 9.87238 21.75 9.86928C21.75 9.86619 21.75 9.86309 21.75 9.85999C21.75 9.85689 21.75 9.85379 21.75 9.85069C21.75 9.84759 21.75 9.84449 21.75 9.8414C21.75 9.8383 21.75 9.8352 21.75 9.83211C21.75 9.82901 21.75 9.82591 21.75 9.82281C21.75 9.81972 21.75 9.81662 21.75 9.81353C21.75 9.81043 21.75 9.80733 21.75 9.80424C21.75 9.80114 21.75 9.79805 21.75 9.79495C21.75 9.79186 21.75 9.78877 21.75 9.78567C21.75 9.78258 21.75 9.77948 21.75 9.77639C21.75 9.7733 21.75 9.77021 21.75 9.76711C21.75 9.76402 21.75 9.76093 21.75 9.75784C21.75 9.75474 21.75 9.75165 21.75 9.74856C21.75 9.74547 21.75 9.74238 21.75 9.73929C21.75 9.7362 21.75 9.73311 21.75 9.73002C21.75 9.72693 21.75 9.72384 21.75 9.72075C21.75 9.71766 21.75 9.71457 21.75 9.71148C21.75 9.7084 21.75 9.70531 21.75 9.70222C21.75 9.69913 21.75 9.69604 21.75 9.69296C21.75 9.68987 21.75 9.68678 21.75 9.6837C21.75 9.68061 21.75 9.67753 21.75 9.67444C21.75 9.67136 21.75 9.66827 21.75 9.66519C21.75 9.6621 21.75 9.65902 21.75 9.65593C21.75 9.65285 21.75 9.64977 21.75 9.64668C21.75 9.6436 21.75 9.64052 21.75 9.63744C21.75 9.63435 21.75 9.63127 21.75 9.62819C21.75 9.62511 21.75 9.62203 21.75 9.61895C21.75 9.61587 21.75 9.61279 21.75 9.60971C21.75 9.60663 21.75 9.60355 21.75 9.60047C21.75 9.59739 21.75 9.59431 21.75 9.59123C21.75 9.58815 21.75 9.58508 21.75 9.582C21.75 9.57892 21.75 9.57585 21.75 9.57277C21.75 9.56969 21.75 9.56662 21.75 9.56354C21.75 9.56047 21.75 9.55739 21.75 9.55432C21.75 9.55124 21.75 9.54817 21.75 9.54509C21.75 9.54202 21.75 9.53895 21.75 9.53587C21.75 9.5328 21.75 9.52973 21.75 9.52665C21.75 9.52358 21.75 9.52051 21.75 9.51744C21.75 9.51437 21.75 9.5113 21.75 9.50823C21.75 9.50516 21.75 9.50209 21.75 9.49902C21.75 9.49595 21.75 9.49288 21.75 9.48981C21.75 9.48674 21.75 9.48368 21.75 9.48061C21.75 9.47754 21.75 9.47447 21.75 9.47141C21.75 9.46834 21.75 9.46528 21.75 9.46221C21.75 9.45914 21.75 9.45608 21.75 9.45301C21.75 9.44995 21.75 9.44689 21.75 9.44382C21.75 9.44076 21.75 9.4377 21.75 9.43463C21.75 9.43157 21.75 9.42851 21.75 9.42545C21.75 9.42239 21.75 9.41932 21.75 9.41626C21.75 9.4132 21.75 9.41014 21.75 9.40708C21.75 9.40402 21.75 9.40096 21.75 9.39791C21.75 9.39485 21.75 9.39179 21.75 9.38873C21.75 9.38567 21.75 9.38262 21.75 9.37956C21.75 9.3765 21.75 9.37345 21.75 9.37039C21.75 9.36734 21.75 9.36428 21.75 9.36123C21.75 9.35817 21.75 9.35512 21.75 9.35207C21.75 9.34901 21.75 9.34596 21.75 9.34291C21.75 9.33986 21.75 9.3368 21.75 9.33375C21.75 9.3307 21.75 9.32765 21.75 9.3246C21.75 9.32155 21.75 9.3185 21.75 9.31545C21.75 9.3124 21.75 9.30935 21.75 9.30631C21.75 9.30326 21.75 9.30021 21.75 9.29716C21.75 9.29412 21.75 9.29107 21.75 9.28803C21.75 9.28498 21.75 9.28193 21.75 9.27889C21.75 9.27585 21.75 9.2728 21.75 9.26976C21.75 9.26672 21.75 9.26367 21.75 9.26063C21.75 9.25759 21.75 9.25455 21.75 9.2515C21.75 9.24846 21.75 9.24542 21.75 9.24238C21.75 9.23934 21.75 9.2363 21.75 9.23327C21.75 9.23023 21.75 9.22719 21.75 9.22415C21.75 9.22111 21.75 9.21808 21.75 9.21504C21.75 9.212 21.75 9.20897 21.75 9.20593C21.75 9.2029 21.75 9.19986 21.75 9.19683C21.75 9.19379 21.75 9.19076 21.75 9.18773C21.75 9.1847 21.75 9.18166 21.75 9.17863C21.75 9.1756 21.75 9.17257 21.75 9.16954C21.75 9.16651 21.75 9.16348 21.75 9.16045C21.75 9.15742 21.75 9.15439 21.75 9.15136C21.75 9.14834 21.75 9.14531 21.75 9.14228C21.75 9.13926 21.75 9.13623 21.75 9.13321C21.75 9.13018 21.75 9.12716 21.75 9.12413C21.75 9.12111 21.75 9.11808 21.75 9.11506C21.75 9.11204 21.75 9.10902 21.75 9.106C21.75 9.10297 21.75 9.09995 21.75 9.09693C21.75 9.09391 21.75 9.09089 21.75 9.08787C21.75 9.08486 21.75 9.08184 21.75 9.07882C21.75 9.0758 21.75 9.07279 21.75 9.06977C21.75 9.06675 21.75 9.06374 21.75 9.06072C21.75 9.05771 21.75 9.05469 21.75 9.05168C21.75 9.04867 21.75 9.04565 21.75 9.04264C21.75 9.03963 21.75 9.03662 21.75 9.03361C21.75 9.0306 21.75 9.02759 21.75 9.02458C21.75 9.02157 21.75 9.01856 21.75 9.01555C21.75 9.01254 21.75 9.00954 21.75 9.00653C21.75 9.00352 21.75 9.00052 21.75 8.99751C21.75 8.99451 21.75 8.9915 21.75 8.9885C21.75 8.98549 21.75 8.98249 21.75 8.97949C21.75 8.97649 21.75 8.97348 21.75 8.97048C21.75 8.96748 21.75 8.96448 21.75 8.96148C21.75 8.95848 21.75 8.95548 21.75 8.95249C21.75 8.94949 21.75 8.94649 21.75 8.94349C21.75 8.9405 21.75 8.9375 21.75 8.93451C21.75 8.93151 21.75 8.92852 21.75 8.92552C21.75 8.92253 21.75 8.91954 21.75 8.91654C21.75 8.91355 21.75 8.91056 21.75 8.90757C21.75 8.90458 21.75 8.90159 21.75 8.8986C21.75 8.89561 21.75 8.89262 21.75 8.88963C21.75 8.88665 21.75 8.88366 21.75 8.88067C21.75 8.87769 21.75 8.8747 21.75 8.87172C21.75 8.86873 21.75 8.86575 21.75 8.86276C21.75 8.85978 21.75 8.8568 21.75 8.85382C21.75 8.85083 21.75 8.84785 21.75 8.84487C21.75 8.84189 21.75 8.83891 21.75 8.83594C21.75 8.83296 21.75 8.82998 21.75 8.827C21.75 8.82402 21.75 8.82105 21.75 8.81807C21.75 8.8151 21.75 8.81212 21.75 8.80915C21.75 8.80618 21.75 8.8032 21.75 8.80023C21.75 8.79726 21.75 8.79429 21.75 8.79132C21.75 8.78834 21.75 8.78537 21.75 8.78241C21.75 8.77944 21.75 8.77647 21.75 8.7735C21.75 8.77053 21.75 8.76757 21.75 8.7646C21.75 8.76163 21.75 8.75867 21.75 8.75571C21.75 8.75274 21.75 8.74978 21.75 8.74682C21.75 8.74385 21.75 8.74089 21.75 8.73793C21.75 8.73497 21.75 8.73201 21.75 8.72905C21.75 8.72609 21.75 8.72313 21.75 8.72017C21.75 8.71722 21.75 8.71426 21.75 8.7113C21.75 8.70835 21.75 8.70539 21.75 8.70244C21.75 8.69948 21.75 8.69653 21.75 8.69358C21.75 8.69063 21.75 8.68767 21.75 8.68472C21.75 8.68177 21.75 8.67882 21.75 8.67587C21.75 8.67292 21.75 8.66998 21.75 8.66703C21.75 8.66408 21.75 8.66113 21.75 8.65819C21.75 8.65524 21.75 8.6523 21.75 8.64935C21.75 8.64641 21.75 8.64347 21.75 8.64052C21.75 8.63758 21.75 8.63464 21.75 8.6317C21.75 8.62876 21.75 8.62582 21.75 8.62288C21.75 8.61994 21.75 8.617 21.75 8.61407C21.75 8.61113 21.75 8.60819 21.75 8.60526C21.75 8.60232 21.75 8.59939 21.75 8.59646C21.75 8.59352 21.75 8.59059 21.75 8.58766C21.75 8.58473 21.75 8.5818 21.75 8.57887C21.75 8.57594 21.75 8.57301 21.75 8.57008C21.75 8.56715 21.75 8.56423 21.75 8.5613C21.75 8.55837 21.75 8.55545 21.75 8.55252C21.75 8.5496 21.75 8.54668 21.75 8.54375C21.75 8.54083 21.75 8.53791 21.75 8.53499C21.75 8.53207 21.75 8.52915 21.75 8.52623C21.75 8.52331 21.75 8.52039 21.75 8.51748C21.75 8.51456 21.75 8.51164 21.75 8.50873C21.75 8.50581 21.75 8.5029 21.75 8.49998C21.75 8.49707 21.75 8.49416 21.75 8.49125C21.75 8.48834 21.75 8.48543 21.75 8.48252C21.75 8.47961 21.75 8.4767 21.75 8.47379C21.75 8.47088 21.75 8.46798 21.75 8.46507C21.75 8.46217 21.75 8.45926 21.75 8.45636C21.75 8.45345 21.75 8.45055 21.75 8.44765C21.75 8.44475 21.75 8.44185 21.75 8.43895C21.75 8.43605 21.75 8.43315 21.75 8.43025C21.75 8.42735 21.75 8.42446 21.75 8.42156C21.75 8.41866 21.75 8.41577 21.75 8.41288C21.75 8.40998 21.75 8.40709 21.75 8.4042C21.75 8.40131 21.75 8.39841 21.75 8.39552C21.75 8.39263 21.75 8.38975 21.75 8.38686C21.75 8.38397 21.75 8.38108 21.75 8.3782C21.75 8.37531 21.75 8.37243 21.75 8.36954C21.75 8.36666 21.75 8.36378 21.75 8.36089C21.75 8.35801 21.75 8.35513 21.75 8.35225C21.75 8.34937 21.75 8.34649 21.75 8.34361C21.75 8.34074 21.75 8.33786 21.75 8.33498C21.75 8.33211 21.75 8.32923 21.75 8.32636C21.75 8.32348 21.75 8.32061 21.75 8.31774C21.75 8.31487 21.75 8.312 21.75 8.30913C21.75 8.30626 21.75 8.30339 21.75 8.30052C21.75 8.29766 21.75 8.29479 21.75 8.29192C21.75 8.28906 21.75 8.28619 21.75 8.28333C21.75 8.28047 21.75 8.2776 21.75 8.27474C21.75 8.27188 21.75 8.26902 21.75 8.26616C21.75 8.2633 21.75 8.26045 21.75 8.25759C21.75 8.25473 21.75 8.25188 21.75 8.24902C21.75 8.24617 21.75 8.24331 21.75 8.24046C21.75 8.23761 21.75 8.23475 21.75 8.2319C21.75 8.22905 21.75 8.2262 21.75 8.22336C21.75 8.22051 21.75 8.21766 21.75 8.21481C21.75 8.21197 21.75 8.20912 21.75 8.20628C21.75 8.20343 21.75 8.20059 21.75 8.19775C21.75 8.19491 21.75 8.19207 21.75 8.18923C21.75 8.18639 21.75 8.18355 21.75 8.18071C21.75 8.17787 21.75 8.17504 21.75 8.1722C21.75 8.16937 21.75 8.16653 21.75 8.1637C21.75 8.16086 21.75 8.15803 21.75 8.1552C21.75 8.15237 21.75 8.14954 21.75 8.14671C21.75 8.14388 21.75 8.14106 21.75 8.13823C21.75 8.1354 21.75 8.13258 21.75 8.12975C21.75 8.12693 21.75 8.12411 21.75 8.12128C21.75 8.11846 21.75 8.11564 21.75 8.11282C21.75 8.11 21.75 8.10718 21.75 8.10437C21.75 8.10155 21.75 8.09873 21.75 8.09592C21.75 8.0931 21.75 8.09029 21.75 8.08748C21.75 8.08466 21.75 8.08185 21.75 8.07904C21.75 8.07623 21.75 8.07342 21.75 8.07061C21.75 8.06781 21.75 8.065 21.75 8.06219C21.75 8.05939 21.75 8.05658 21.75 8.05378C21.75 8.05098 21.75 8.04817 21.75 8.04537C21.75 8.04257 21.75 8.03977 21.75 8.03697C21.75 8.03417 21.75 8.03138 21.75 8.02858C21.75 8.02578 21.75 8.02299 21.75 8.02019C21.75 8.0174 21.75 8.01461 21.75 8.01181C21.75 8.00902 21.75 8.00623 21.75 8.00344C21.75 8.00065 21.75 7.99787 21.75 7.99508C21.75 7.99229 21.75 7.98951 21.75 7.98672C21.75 7.98394 21.75 7.98115 21.75 7.97837C21.75 7.97559 21.75 7.97281 21.75 7.97003C21.75 7.96725 21.75 7.96447 21.75 7.96169C21.75 7.95892 21.75 7.95614 21.75 7.95336C21.75 7.95059 21.75 7.94782 21.75 7.94504C21.75 7.94227 21.75 7.9395 21.75 7.93673C21.75 7.93396 21.75 7.93119 21.75 7.92842C21.75 7.92566 21.75 7.92289 21.75 7.92012C21.75 7.91736 21.75 7.9146 21.75 7.91183C21.75 7.90907 21.75 7.90631 21.75 7.90355C21.75 7.90079 21.75 7.89803 21.75 7.89527C21.75 7.89251 21.75 7.88976 21.75 7.887C21.75 7.88425 21.75 7.88149 21.75 7.87874C21.75 7.87599 21.75 7.87324 21.75 7.87049C21.75 7.86774 21.75 7.86499 21.75 7.86224C21.75 7.85949 21.75 7.85675 21.75 7.854C21.75 7.85126 21.75 7.84851 21.75 7.84577C21.75 7.84303 21.75 7.84029 21.75 7.83755C21.75 7.83481 21.75 7.83207 21.75 7.82933C21.75 7.82659 21.75 7.82386 21.75 7.82112C21.75 7.81839 21.75 7.81566 21.75 7.81292C21.75 7.81019 21.75 7.80746 21.75 7.80473C21.75 7.802 21.75 7.79927 21.75 7.79655C21.75 7.79382 21.75 7.79109 21.75 7.78837C21.75 7.78564 21.75 7.78292 21.75 7.7802C21.75 7.77748 21.75 7.77476 21.75 7.77204C21.75 7.76932 21.75 7.7666 21.75 7.76388C21.75 7.76117 21.75 7.75845 21.75 7.75574C21.75 7.75302 21.75 7.75031 21.75 7.7476C21.75 7.74489 21.75 7.74218 21.75 7.73947C21.75 7.73676 21.75 7.73405 21.75 7.73135C21.75 7.72864 21.75 7.72594 21.75 7.72324C21.75 7.72053 21.75 7.71783 21.75 7.71513C21.75 7.71243 21.75 7.70973 21.75 7.70703C21.75 7.70433 21.75 7.70164 21.75 7.69894C21.75 7.69625 21.75 7.69355 21.75 7.69086C21.75 7.68817 21.75 7.68548 21.75 7.68279C21.75 7.6801 21.75 7.67741 21.75 7.67472C21.75 7.67203 21.75 7.66935 21.75 7.66666C21.75 7.66398 21.75 7.6613 21.75 7.65862C21.75 7.65593 21.75 7.65325 21.75 7.65058C21.75 7.6479 21.75 7.64522 21.75 7.64254C21.75 7.63987 21.75 7.63719 21.75 7.63452C21.75 7.63185 21.75 7.62917 21.75 7.6265C21.75 7.62383 21.75 7.62116 21.75 7.6185C21.75 7.61583 21.75 7.61316 21.75 7.6105C21.75 7.60783 21.75 7.60517 21.75 7.60251C21.75 7.59984 21.75 7.59718 21.75 7.59452C21.75 7.59187 21.75 7.58921 21.75 7.58655C21.75 7.58389 21.75 7.58124 21.75 7.57859C21.75 7.57593 21.75 7.57328 21.75 7.57063C21.75 7.56798 21.75 7.56533 21.75 7.56268C21.75 7.56003 21.75 7.55739 21.75 7.55474C21.75 7.5521 21.75 7.54945 21.75 7.54681C21.75 7.54417 21.75 7.54153 21.75 7.53889C21.75 7.53625 21.75 7.53361 21.75 7.53097C21.75 7.52834 21.75 7.5257 21.75 7.52307C21.75 7.52044 21.75 7.5178 21.75 7.51517C21.75 7.51254 21.75 7.50991 21.75 7.50728C21.75 7.50466 21.75 7.50203 21.75 7.49941C21.75 7.49678 21.75 7.49416 21.75 7.49154C21.75 7.48891 21.75 7.48629 21.75 7.48367C21.75 7.48106 21.75 7.47844 21.75 7.47582C21.75 7.47321 21.75 7.47059 21.75 7.46798C21.75 7.46536 21.75 7.46275 21.75 7.46014C21.75 7.45753 21.75 7.45492 21.75 7.45232C21.75 7.44971 21.75 7.4471 21.75 7.4445C21.75 7.4419 21.75 7.43929 21.75 7.43669C21.75 7.43409 21.75 7.43149 21.75 7.42889C21.75 7.42629 21.75 7.4237 21.75 7.4211C21.75 7.41851 21.75 7.41591 21.75 7.41332C21.75 7.41073 21.75 7.40814 21.75 7.40555C21.75 7.40296 21.75 7.40037 21.75 7.39779C21.75 7.3952 21.75 7.39261 21.75 7.39003C21.75 7.38745 21.75 7.38487 21.75 7.38229C21.75 7.37971 21.75 7.37713 21.75 7.37455C21.75 7.37197 21.75 7.3694 21.75 7.36682C21.75 7.36425 21.75 7.36168 21.75 7.35911C21.75 7.35654 21.75 7.35397 21.75 7.3514C21.75 7.34883 21.75 7.34626 21.75 7.3437C21.75 7.34113 21.75 7.33857 21.75 7.33601C21.75 7.33345 21.75 7.33089 21.75 7.32833C21.75 7.32577 21.75 7.32321 21.75 7.32066C21.75 7.3181 21.75 7.31555 21.75 7.313C21.75 7.31044 21.75 7.30789 21.75 7.30534C21.75 7.3028 21.75 7.30025 21.75 7.2977C21.75 7.29516 21.75 7.29261 21.75 7.29007C21.75 7.28753 21.75 7.28498 21.75 7.28244C21.75 7.27991 21.75 7.27737 21.75 7.27483C21.75 7.27229 21.75 7.26976 21.75 7.26723C21.75 7.26469 21.75 7.26216 21.75 7.25963C21.75 7.2571 21.75 7.25457 21.75 7.25204C21.75 7.24952 21.75 7.24699 21.75 7.24447C21.75 7.24194 21.75 7.23942 21.75 7.2369C21.75 7.23438 21.75 7.23186 21.75 7.22934C21.75 7.22683 21.75 7.22431 21.75 7.2218C21.75 7.21928 21.75 7.21677 21.75 7.21426C21.75 7.21175 21.75 7.20924 21.75 7.20673C21.75 7.20422 21.75 7.20172 21.75 7.19921C21.75 7.19671 21.75 7.19421 21.75 7.1917C21.75 7.1892 21.75 7.1867 21.75 7.18421C21.75 7.18171 21.75 7.17921 21.75 7.17672C21.75 7.17422 21.75 7.17173 21.75 7.16924C21.75 7.16675 21.75 7.16426 21.75 7.16177C21.75 7.15928 21.75 7.15679 21.75 7.15431C21.75 7.15183 21.75 7.14934 21.75 7.14686C21.75 7.14438 21.75 7.1419 21.75 7.13942C21.75 7.13694 21.75 7.13447 21.75 7.13199C21.75 7.12952 21.75 7.12704 21.75 7.12457C21.75 7.1221 21.75 7.11963 21.75 7.11716C21.75 7.1147 21.75 7.11223 21.75 7.10976C21.75 7.1073 21.75 7.10484 21.75 7.10238C21.75 7.09991 21.75 7.09745 21.75 7.095C21.75 7.09254 21.75 7.09008 21.75 7.08763C21.75 7.08517 21.75 7.08272 21.75 7.08027C21.75 7.07782 21.75 7.07537 21.75 7.07292C21.75 7.07047 21.75 7.06803 21.75 7.06558C21.75 7.06314 21.75 7.06069 21.75 7.05825C21.75 7.05581 21.75 7.05337 21.75 7.05094C21.75 7.0485 21.75 7.04606 21.75 7.04363C21.75 7.04119 21.75 7.03876 21.75 7.03633C21.75 7.0339 21.75 7.03147 21.75 7.02904C21.75 7.02662 21.75 7.02419 21.75 7.02177C21.75 7.01934 21.75 7.01692 21.75 7.0145C21.75 7.01208 21.75 7.00966 21.75 7.00725C21.75 7.00483 21.75 7.00241 21.75 7H20.25ZM16.5 13.25C15.5335 13.25 14.75 12.4665 14.75 11.5H13.25C13.25 13.2949 14.7051 14.75 16.5 14.75V13.25ZM18.5 14.75C20.2949 14.75 21.75 13.2952 21.75 11.5002H20.25C20.25 12.4666 19.4666 13.25 18.5 13.25V14.75ZM14.75 6.5C14.75 5.5335 15.5335 4.75 16.5 4.75V3.25C14.7051 3.25 13.25 4.70507 13.25 6.5H14.75Z" fill="#4481EB"/>
<rect x="14" y="17" width="7" height="4" rx="2" stroke="#4481EB" stroke-width="1.5"/>
</svg>
