<svg xmlns="http://www.w3.org/2000/svg" width="24" height="24" fill="none" viewBox="0 0 24 24"><path fill="#4481EB" d="M8.0577 8.40426C8.0577 7.99004 8.39349 7.65426 8.8077 7.65426C9.22191 7.65426 9.5577 7.99004 9.5577 8.40426H8.0577ZM12.212 5.75C11.7977 5.75 11.462 5.41421 11.462 5C11.462 4.58579 11.7977 4.25 12.212 4.25V5.75ZM9.5577 8.40426C9.5577 9.87016 10.7461 11.0585 12.212 11.0585V12.5585C9.91762 12.5585 8.0577 10.6986 8.0577 8.40426H9.5577ZM12.212 11.0585C13.6779 11.0585 14.8662 9.87016 14.8662 8.40426H16.3662C16.3662 10.6986 14.5063 12.5585 12.212 12.5585V11.0585ZM14.8662 8.40426C14.8662 6.93835 13.6779 5.75 12.212 5.75V4.25C14.5063 4.25 16.3662 6.10992 16.3662 8.40426H14.8662Z"/><path stroke="#4481EB" stroke-width="1.5" d="M6.25488 16.8594C6.25488 16.1272 6.71518 15.474 7.40475 15.2277V15.2277C10.5136 14.1174 13.911 14.1174 17.0199 15.2277V15.2277C17.7095 15.474 18.1698 16.1272 18.1698 16.8594V17.979C18.1698 18.9896 17.2747 19.7659 16.2743 19.6229L15.9407 19.5753C13.4677 19.222 10.957 19.222 8.48393 19.5753L8.15038 19.6229C7.14995 19.7659 6.25488 18.9896 6.25488 17.979V16.8594Z"/><path stroke="#4481EB" stroke-linecap="round" stroke-width="1.5" d="M17.3194 11.9026C18.7966 11.9026 19.9941 10.7051 19.9941 9.22787C19.9941 7.75064 18.7966 6.5531 17.3194 6.5531"/><path stroke="#4481EB" stroke-linecap="round" stroke-width="1.5" d="M20.2491 18.0051L20.5111 18.0425C21.2972 18.1548 22.0005 17.5448 22.0005 16.7508V15.8711C22.0005 15.2958 21.6388 14.7826 21.097 14.5891C20.5565 14.3961 20.005 14.2458 19.4473 14.1382"/><path stroke="#4481EB" stroke-linecap="round" stroke-width="1.5" d="M6.68063 11.9026C5.2034 11.9026 4.00586 10.7051 4.00586 9.22787C4.00586 7.75064 5.2034 6.5531 6.68063 6.5531"/><path stroke="#4481EB" stroke-linecap="round" stroke-width="1.5" d="M3.75094 18.0051L3.48886 18.0425C2.70281 18.1548 1.99954 17.5448 1.99954 16.7508V15.8711C1.99954 15.2958 2.36121 14.7826 2.90301 14.5891C3.44346 14.3961 3.995 14.2458 4.55273 14.1382"/></svg>