<svg xmlns="http://www.w3.org/2000/svg" width="20" height="20" fill="none" viewBox="0 0 20 20"><path fill="#4481EB" d="M11.3444 17.2941C10.996 17.5181 10.8951 17.9821 11.1191 18.3306C11.3431 18.679 11.8071 18.7799 12.1556 18.5559L11.3444 17.2941ZM7.84443 18.5559C8.19286 18.7799 8.65689 18.679 8.88088 18.3306C9.10487 17.9821 9.004 17.5181 8.65557 17.2941L7.84443 18.5559ZM5.94164 17.2307L5.48353 16.6369L5.94164 17.2307ZM7.0932 17.1813L7.49877 16.5505L7.0932 17.1813ZM14.0584 17.2307L13.6003 17.8246L14.0584 17.2307ZM12.9068 17.1813L12.5012 16.5505L12.9068 17.1813ZM4.6108 18.2574L4.1527 17.6635L4.6108 18.2574ZM15.3892 18.2574L14.9311 18.8512L15.3892 18.2574ZM16.25 1.5V17.4656H17.75V1.5H16.25ZM3.75 17.4656V1.5H2.25V17.4656H3.75ZM15.8473 17.6635L14.5165 16.6369L13.6003 17.8246L14.9311 18.8512L15.8473 17.6635ZM5.48353 16.6369L4.1527 17.6635L5.06891 18.8512L6.39974 17.8246L5.48353 16.6369ZM12.5012 16.5505L11.3444 17.2941L12.1556 18.5559L13.3124 17.8122L12.5012 16.5505ZM8.65557 17.2941L7.49877 16.5505L6.68763 17.8122L7.84443 18.5559L8.65557 17.2941ZM6.39974 17.8246C6.48344 17.76 6.59871 17.7551 6.68763 17.8122L7.49877 16.5505C6.87631 16.1503 6.06944 16.1849 5.48353 16.6369L6.39974 17.8246ZM14.5165 16.6369C13.9306 16.1849 13.1237 16.1503 12.5012 16.5505L13.3124 17.8122C13.4013 17.7551 13.5166 17.76 13.6003 17.8246L14.5165 16.6369ZM2.25 17.4656C2.25 18.9186 3.91841 19.7387 5.06891 18.8512L4.1527 17.6635C3.98834 17.7903 3.75 17.6732 3.75 17.4656H2.25ZM16.25 17.4656C16.25 17.6732 16.0117 17.7903 15.8473 17.6635L14.9311 18.8512C16.0816 19.7387 17.75 18.9186 17.75 17.4656H16.25Z"/><path stroke="#4481EB" stroke-linecap="round" stroke-linejoin="round" stroke-width="1.5" d="M7 7.5H10"/><path stroke="#4481EB" stroke-linecap="round" stroke-linejoin="round" stroke-width="1.5" d="M1 1.5H10M19 1.5H14.5"/><path stroke="#4481EB" stroke-linecap="round" stroke-linejoin="round" stroke-width="1.5" d="M7 11.5H10"/><path stroke="#4481EB" stroke-linecap="round" stroke-linejoin="round" stroke-width="1.5" d="M13 7.5H13.5"/><path stroke="#4481EB" stroke-linecap="round" stroke-linejoin="round" stroke-width="1.5" d="M13 11.5H13.5"/></svg>