<svg xmlns="http://www.w3.org/2000/svg" width="24" height="24" fill="none" viewBox="0 0 24 24"><path stroke="#4481EB" stroke-linecap="round" stroke-linejoin="round" stroke-width="1.5" d="M2 6.16667L11.2308 2.32051C11.7231 2.11538 12.2769 2.11538 12.7692 2.32051L17 4.08333L22 6.16667M2 6.16667L7 8.25M2 6.16667V10.5M12 10.3333V22M12 10.3333L22 6.16667M12 10.3333L7 8.25M12 22L2.61538 18.0897C2.24274 17.9345 2 17.5704 2 17.1667V13.5M12 22L21.3846 18.0897C21.7573 17.9345 22 17.5704 22 17.1667V6.16667M7 8.25L13.5 5.5"/></svg>